<svg width="371" height="59" viewBox="0 0 371 59" fill="none" xmlns="http://www.w3.org/2000/svg">
<path d="M16.2729 41C15.7595 41 15.3279 40.825 14.9779 40.475C14.6279 40.125 14.4529 39.6933 14.4529 39.18V15.485C14.4529 14.9483 14.6279 14.5167 14.9779 14.19C15.3279 13.84 15.7595 13.665 16.2729 13.665H23.2729C25.0229 13.665 26.5745 14.05 27.9279 14.82C29.2812 15.59 30.3312 16.6633 31.0779 18.04C31.8479 19.3933 32.2329 20.9567 32.2329 22.73C32.2329 24.4333 31.8479 25.95 31.0779 27.28C30.3312 28.61 29.2812 29.6483 27.9279 30.395C26.5745 31.1417 25.0229 31.515 23.2729 31.515H18.0929V39.18C18.0929 39.6933 17.9179 40.125 17.5679 40.475C17.2412 40.825 16.8095 41 16.2729 41ZM18.0929 28.155H23.2729C24.3462 28.155 25.2912 27.9217 26.1079 27.455C26.9245 26.9883 27.5662 26.3467 28.0329 25.53C28.4995 24.7133 28.7329 23.78 28.7329 22.73C28.7329 21.61 28.4995 20.63 28.0329 19.79C27.5662 18.9267 26.9245 18.25 26.1079 17.76C25.2912 17.27 24.3462 17.025 23.2729 17.025H18.0929V28.155ZM43.2059 41.14C41.5026 41.14 39.9743 40.72 38.6209 39.88C37.2676 39.0167 36.1943 37.8617 35.4009 36.415C34.6309 34.945 34.2459 33.2883 34.2459 31.445C34.2459 29.6017 34.6659 27.945 35.5059 26.475C36.3693 25.005 37.5243 23.85 38.9709 23.01C40.4409 22.1467 42.0859 21.715 43.9059 21.715C45.7259 21.715 47.3593 22.1467 48.8059 23.01C50.2526 23.85 51.3959 25.005 52.2359 26.475C53.0993 27.945 53.5309 29.6017 53.5309 31.445H52.1659C52.1659 33.2883 51.7693 34.945 50.9759 36.415C50.2059 37.8617 49.1443 39.0167 47.7909 39.88C46.4376 40.72 44.9093 41.14 43.2059 41.14ZM43.9059 37.99C45.0959 37.99 46.1576 37.71 47.0909 37.15C48.0243 36.5667 48.7593 35.785 49.2959 34.805C49.8326 33.8017 50.1009 32.6817 50.1009 31.445C50.1009 30.185 49.8326 29.065 49.2959 28.085C48.7593 27.0817 48.0243 26.3 47.0909 25.74C46.1576 25.1567 45.0959 24.865 43.9059 24.865C42.7393 24.865 41.6776 25.1567 40.7209 25.74C39.7876 26.3 39.0409 27.0817 38.4809 28.085C37.9443 29.065 37.6759 30.185 37.6759 31.445C37.6759 32.6817 37.9443 33.8017 38.4809 34.805C39.0409 35.785 39.7876 36.5667 40.7209 37.15C41.6776 37.71 42.7393 37.99 43.9059 37.99ZM51.7459 41.035C51.2326 41.035 50.8009 40.8717 50.4509 40.545C50.1243 40.195 49.9609 39.7633 49.9609 39.25V33.895L50.6259 30.185L53.5309 31.445V39.25C53.5309 39.7633 53.3559 40.195 53.0059 40.545C52.6793 40.8717 52.2593 41.035 51.7459 41.035ZM65.8091 41.14C64.1758 41.14 62.6591 40.895 61.2591 40.405C59.8824 39.8917 58.8091 39.25 58.0391 38.48C57.6891 38.1067 57.5374 37.6867 57.5841 37.22C57.6541 36.73 57.8874 36.3333 58.2841 36.03C58.7508 35.6567 59.2058 35.505 59.6491 35.575C60.1158 35.6217 60.5124 35.82 60.8391 36.17C61.2358 36.6133 61.8658 37.0333 62.7291 37.43C63.6158 37.8033 64.5958 37.99 65.6691 37.99C67.0224 37.99 68.0491 37.7683 68.7491 37.325C69.4724 36.8817 69.8458 36.31 69.8691 35.61C69.8924 34.91 69.5541 34.3033 68.8541 33.79C68.1774 33.2767 66.9291 32.8567 65.1091 32.53C62.7524 32.0633 61.0374 31.3633 59.9641 30.43C58.9141 29.4967 58.3891 28.3533 58.3891 27C58.3891 25.81 58.7391 24.83 59.4391 24.06C60.1391 23.2667 61.0374 22.6833 62.1341 22.31C63.2308 21.9133 64.3741 21.715 65.5641 21.715C67.1041 21.715 68.4691 21.96 69.6591 22.45C70.8491 22.94 71.7941 23.6167 72.4941 24.48C72.8208 24.8533 72.9724 25.25 72.9491 25.67C72.9258 26.0667 72.7274 26.405 72.3541 26.685C71.9808 26.9417 71.5374 27.0233 71.0241 26.93C70.5108 26.8367 70.0791 26.6267 69.7291 26.3C69.1458 25.74 68.5158 25.355 67.8391 25.145C67.1624 24.935 66.3808 24.83 65.4941 24.83C64.4674 24.83 63.5924 25.005 62.8691 25.355C62.1691 25.705 61.8191 26.2183 61.8191 26.895C61.8191 27.315 61.9241 27.7 62.1341 28.05C62.3674 28.3767 62.8108 28.68 63.4641 28.96C64.1174 29.2167 65.0741 29.4733 66.3341 29.73C68.0841 30.08 69.4608 30.5233 70.4641 31.06C71.4908 31.5967 72.2258 32.2267 72.6691 32.95C73.1124 33.65 73.3341 34.4667 73.3341 35.4C73.3341 36.4733 73.0424 37.4417 72.4591 38.305C71.8991 39.1683 71.0591 39.8567 69.9391 40.37C68.8424 40.8833 67.4658 41.14 65.8091 41.14ZM84.813 41.14C83.1797 41.14 81.663 40.895 80.263 40.405C78.8863 39.8917 77.813 39.25 77.043 38.48C76.693 38.1067 76.5413 37.6867 76.588 37.22C76.658 36.73 76.8913 36.3333 77.288 36.03C77.7547 35.6567 78.2097 35.505 78.653 35.575C79.1197 35.6217 79.5163 35.82 79.843 36.17C80.2397 36.6133 80.8697 37.0333 81.733 37.43C82.6197 37.8033 83.5997 37.99 84.673 37.99C86.0263 37.99 87.053 37.7683 87.753 37.325C88.4763 36.8817 88.8497 36.31 88.873 35.61C88.8963 34.91 88.558 34.3033 87.858 33.79C87.1813 33.2767 85.933 32.8567 84.113 32.53C81.7563 32.0633 80.0413 31.3633 78.968 30.43C77.918 29.4967 77.393 28.3533 77.393 27C77.393 25.81 77.743 24.83 78.443 24.06C79.143 23.2667 80.0413 22.6833 81.138 22.31C82.2347 21.9133 83.378 21.715 84.568 21.715C86.108 21.715 87.473 21.96 88.663 22.45C89.853 22.94 90.798 23.6167 91.498 24.48C91.8247 24.8533 91.9763 25.25 91.953 25.67C91.9297 26.0667 91.7313 26.405 91.358 26.685C90.9847 26.9417 90.5413 27.0233 90.028 26.93C89.5147 26.8367 89.083 26.6267 88.733 26.3C88.1497 25.74 87.5197 25.355 86.843 25.145C86.1663 24.935 85.3847 24.83 84.498 24.83C83.4713 24.83 82.5963 25.005 81.873 25.355C81.173 25.705 80.823 26.2183 80.823 26.895C80.823 27.315 80.928 27.7 81.138 28.05C81.3713 28.3767 81.8147 28.68 82.468 28.96C83.1213 29.2167 84.078 29.4733 85.338 29.73C87.088 30.08 88.4647 30.5233 89.468 31.06C90.4947 31.5967 91.2297 32.2267 91.673 32.95C92.1163 33.65 92.338 34.4667 92.338 35.4C92.338 36.4733 92.0463 37.4417 91.463 38.305C90.903 39.1683 90.063 39.8567 88.943 40.37C87.8463 40.8833 86.4697 41.14 84.813 41.14ZM101.262 41C100.889 41 100.539 40.895 100.212 40.685C99.9086 40.4517 99.6986 40.1717 99.5819 39.845L94.4019 24.305C94.2152 23.5817 94.2152 22.9983 94.4019 22.555C94.6119 22.0883 95.0552 21.855 95.7319 21.855C96.1752 21.855 96.5369 21.9833 96.8169 22.24C97.1202 22.4733 97.3652 22.8817 97.5519 23.465L101.962 37.255H100.737L104.902 23.185C105.019 22.7883 105.217 22.4733 105.497 22.24C105.777 21.9833 106.162 21.855 106.652 21.855C107.119 21.855 107.492 21.9833 107.772 22.24C108.075 22.4733 108.274 22.7883 108.367 23.185L111.762 36.415H111.237L115.367 23.465C115.694 22.3917 116.3 21.855 117.187 21.855C117.84 21.855 118.284 22.0883 118.517 22.555C118.75 22.9983 118.739 23.5817 118.482 24.305L113.302 39.845C113.209 40.1717 113.01 40.4517 112.707 40.685C112.404 40.895 112.054 41 111.657 41C111.284 41 110.934 40.895 110.607 40.685C110.28 40.4517 110.07 40.1717 109.977 39.845L106.372 26.51H106.722L102.942 39.845C102.849 40.1717 102.639 40.4517 102.312 40.685C102.009 40.895 101.659 41 101.262 41ZM130.312 41.14C128.422 41.14 126.754 40.7317 125.307 39.915C123.861 39.075 122.717 37.9317 121.877 36.485C121.061 35.015 120.652 33.335 120.652 31.445C120.652 29.5317 121.061 27.8517 121.877 26.405C122.717 24.935 123.861 23.7917 125.307 22.975C126.754 22.135 128.422 21.715 130.312 21.715C132.179 21.715 133.836 22.135 135.282 22.975C136.729 23.7917 137.861 24.935 138.677 26.405C139.517 27.8517 139.937 29.5317 139.937 31.445C139.937 33.335 139.529 35.015 138.712 36.485C137.896 37.9317 136.764 39.075 135.317 39.915C133.871 40.7317 132.202 41.14 130.312 41.14ZM130.312 37.99C131.526 37.99 132.599 37.71 133.532 37.15C134.466 36.59 135.189 35.82 135.702 34.84C136.239 33.86 136.507 32.7283 136.507 31.445C136.507 30.1617 136.239 29.03 135.702 28.05C135.189 27.0467 134.466 26.265 133.532 25.705C132.599 25.145 131.526 24.865 130.312 24.865C129.099 24.865 128.026 25.145 127.092 25.705C126.159 26.265 125.424 27.0467 124.887 28.05C124.351 29.03 124.082 30.1617 124.082 31.445C124.082 32.7283 124.351 33.86 124.887 34.84C125.424 35.82 126.159 36.59 127.092 37.15C128.026 37.71 129.099 37.99 130.312 37.99ZM146.965 29.03C146.965 27.63 147.304 26.3817 147.98 25.285C148.68 24.165 149.614 23.2783 150.78 22.625C151.947 21.9717 153.23 21.645 154.63 21.645C156.03 21.645 157.069 21.8783 157.745 22.345C158.445 22.7883 158.714 23.325 158.55 23.955C158.48 24.2817 158.34 24.5383 158.13 24.725C157.944 24.8883 157.722 24.9933 157.465 25.04C157.209 25.0867 156.929 25.075 156.625 25.005C155.132 24.7017 153.79 24.6783 152.6 24.935C151.41 25.1917 150.465 25.67 149.765 26.37C149.089 27.07 148.75 27.9567 148.75 29.03H146.965ZM147 41C146.44 41 146.009 40.86 145.705 40.58C145.402 40.2767 145.25 39.8333 145.25 39.25V23.605C145.25 23.045 145.402 22.6133 145.705 22.31C146.009 22.0067 146.44 21.855 147 21.855C147.584 21.855 148.015 22.0067 148.295 22.31C148.599 22.59 148.75 23.0217 148.75 23.605V39.25C148.75 39.81 148.599 40.2417 148.295 40.545C148.015 40.8483 147.584 41 147 41ZM169.55 41.14C167.73 41.14 166.085 40.72 164.615 39.88C163.169 39.0167 162.014 37.85 161.15 36.38C160.31 34.91 159.89 33.2533 159.89 31.41C159.89 29.5667 160.275 27.9217 161.045 26.475C161.839 25.005 162.912 23.85 164.265 23.01C165.619 22.1467 167.147 21.715 168.85 21.715C170.227 21.715 171.499 22.0067 172.665 22.59C173.832 23.15 174.812 23.92 175.605 24.9V15.45C175.605 14.9133 175.769 14.4817 176.095 14.155C176.445 13.8283 176.877 13.665 177.39 13.665C177.927 13.665 178.359 13.8283 178.685 14.155C179.012 14.4817 179.175 14.9133 179.175 15.45V31.41C179.175 33.2533 178.744 34.91 177.88 36.38C177.04 37.85 175.897 39.0167 174.45 39.88C173.004 40.72 171.37 41.14 169.55 41.14ZM169.55 37.99C170.74 37.99 171.802 37.71 172.735 37.15C173.669 36.5667 174.404 35.7733 174.94 34.77C175.477 33.7667 175.745 32.6467 175.745 31.41C175.745 30.15 175.477 29.03 174.94 28.05C174.404 27.07 173.669 26.3 172.735 25.74C171.802 25.1567 170.74 24.865 169.55 24.865C168.384 24.865 167.322 25.1567 166.365 25.74C165.432 26.3 164.685 27.07 164.125 28.05C163.589 29.03 163.32 30.15 163.32 31.41C163.32 32.6467 163.589 33.7667 164.125 34.77C164.685 35.7733 165.432 36.5667 166.365 37.15C167.322 37.71 168.384 37.99 169.55 37.99ZM197.904 41C197.39 41 196.959 40.825 196.609 40.475C196.259 40.125 196.084 39.6933 196.084 39.18V15.485C196.084 14.9483 196.259 14.5167 196.609 14.19C196.959 13.84 197.39 13.665 197.904 13.665C198.604 13.665 199.14 13.9917 199.514 14.645L210.469 36.59H209.349L220.024 14.645C220.397 13.9917 220.934 13.665 221.634 13.665C222.147 13.665 222.579 13.84 222.929 14.19C223.279 14.5167 223.454 14.9483 223.454 15.485V39.18C223.454 39.6933 223.267 40.125 222.894 40.475C222.544 40.825 222.124 41 221.634 41C221.12 41 220.689 40.825 220.339 40.475C219.989 40.125 219.814 39.6933 219.814 39.18V20.525L220.514 20.35L211.344 39.04C210.947 39.6467 210.422 39.95 209.769 39.95C208.999 39.95 208.439 39.5883 208.089 38.865L199.024 20.7L199.724 20.525V39.18C199.724 39.6933 199.549 40.125 199.199 40.475C198.849 40.825 198.417 41 197.904 41ZM238.099 41.14C236.395 41.14 234.867 40.72 233.514 39.88C232.16 39.0167 231.087 37.8617 230.294 36.415C229.524 34.945 229.139 33.2883 229.139 31.445C229.139 29.6017 229.559 27.945 230.399 26.475C231.262 25.005 232.417 23.85 233.864 23.01C235.334 22.1467 236.979 21.715 238.799 21.715C240.619 21.715 242.252 22.1467 243.699 23.01C245.145 23.85 246.289 25.005 247.129 26.475C247.992 27.945 248.424 29.6017 248.424 31.445H247.059C247.059 33.2883 246.662 34.945 245.869 36.415C245.099 37.8617 244.037 39.0167 242.684 39.88C241.33 40.72 239.802 41.14 238.099 41.14ZM238.799 37.99C239.989 37.99 241.05 37.71 241.984 37.15C242.917 36.5667 243.652 35.785 244.189 34.805C244.725 33.8017 244.994 32.6817 244.994 31.445C244.994 30.185 244.725 29.065 244.189 28.085C243.652 27.0817 242.917 26.3 241.984 25.74C241.05 25.1567 239.989 24.865 238.799 24.865C237.632 24.865 236.57 25.1567 235.614 25.74C234.68 26.3 233.934 27.0817 233.374 28.085C232.837 29.065 232.569 30.185 232.569 31.445C232.569 32.6817 232.837 33.8017 233.374 34.805C233.934 35.785 234.68 36.5667 235.614 37.15C236.57 37.71 237.632 37.99 238.799 37.99ZM246.639 41.035C246.125 41.035 245.694 40.8717 245.344 40.545C245.017 40.195 244.854 39.7633 244.854 39.25V33.895L245.519 30.185L248.424 31.445V39.25C248.424 39.7633 248.249 40.195 247.899 40.545C247.572 40.8717 247.152 41.035 246.639 41.035ZM269.907 41.035C269.393 41.035 268.962 40.8717 268.612 40.545C268.285 40.195 268.122 39.7633 268.122 39.25V30.64C268.122 29.31 267.877 28.225 267.387 27.385C266.897 26.545 266.232 25.9267 265.392 25.53C264.575 25.11 263.63 24.9 262.557 24.9C261.577 24.9 260.69 25.0983 259.897 25.495C259.103 25.8917 258.473 26.4283 258.007 27.105C257.54 27.7583 257.307 28.5167 257.307 29.38H255.102C255.102 27.91 255.452 26.6033 256.152 25.46C256.875 24.2933 257.855 23.3717 259.092 22.695C260.328 22.0183 261.717 21.68 263.257 21.68C264.867 21.68 266.302 22.03 267.562 22.73C268.845 23.4067 269.848 24.41 270.572 25.74C271.318 27.07 271.692 28.7033 271.692 30.64V39.25C271.692 39.7633 271.517 40.195 271.167 40.545C270.84 40.8717 270.42 41.035 269.907 41.035ZM255.522 41.035C255.008 41.035 254.577 40.8717 254.227 40.545C253.9 40.195 253.737 39.7633 253.737 39.25V23.64C253.737 23.1033 253.9 22.6717 254.227 22.345C254.577 22.0183 255.008 21.855 255.522 21.855C256.058 21.855 256.49 22.0183 256.817 22.345C257.143 22.6717 257.307 23.1033 257.307 23.64V39.25C257.307 39.7633 257.143 40.195 256.817 40.545C256.49 40.8717 256.058 41.035 255.522 41.035ZM285.574 41.14C283.871 41.14 282.342 40.72 280.989 39.88C279.636 39.0167 278.562 37.8617 277.769 36.415C276.999 34.945 276.614 33.2883 276.614 31.445C276.614 29.6017 277.034 27.945 277.874 26.475C278.737 25.005 279.892 23.85 281.339 23.01C282.809 22.1467 284.454 21.715 286.274 21.715C288.094 21.715 289.727 22.1467 291.174 23.01C292.621 23.85 293.764 25.005 294.604 26.475C295.467 27.945 295.899 29.6017 295.899 31.445H294.534C294.534 33.2883 294.137 34.945 293.344 36.415C292.574 37.8617 291.512 39.0167 290.159 39.88C288.806 40.72 287.277 41.14 285.574 41.14ZM286.274 37.99C287.464 37.99 288.526 37.71 289.459 37.15C290.392 36.5667 291.127 35.785 291.664 34.805C292.201 33.8017 292.469 32.6817 292.469 31.445C292.469 30.185 292.201 29.065 291.664 28.085C291.127 27.0817 290.392 26.3 289.459 25.74C288.526 25.1567 287.464 24.865 286.274 24.865C285.107 24.865 284.046 25.1567 283.089 25.74C282.156 26.3 281.409 27.0817 280.849 28.085C280.312 29.065 280.044 30.185 280.044 31.445C280.044 32.6817 280.312 33.8017 280.849 34.805C281.409 35.785 282.156 36.5667 283.089 37.15C284.046 37.71 285.107 37.99 286.274 37.99ZM294.114 41.035C293.601 41.035 293.169 40.8717 292.819 40.545C292.492 40.195 292.329 39.7633 292.329 39.25V33.895L292.994 30.185L295.899 31.445V39.25C295.899 39.7633 295.724 40.195 295.374 40.545C295.047 40.8717 294.627 41.035 294.114 41.035ZM309.192 41.14C307.442 41.14 305.891 40.7317 304.537 39.915C303.207 39.075 302.157 37.9317 301.387 36.485C300.617 35.015 300.232 33.335 300.232 31.445C300.232 29.5317 300.641 27.8517 301.457 26.405C302.297 24.935 303.441 23.7917 304.887 22.975C306.334 22.135 308.002 21.715 309.892 21.715C311.759 21.715 313.416 22.135 314.862 22.975C316.309 23.7917 317.441 24.935 318.257 26.405C319.097 27.8517 319.517 29.5317 319.517 31.445H317.452C317.452 33.335 317.091 35.015 316.367 36.485C315.667 37.9317 314.699 39.075 313.462 39.915C312.226 40.7317 310.802 41.14 309.192 41.14ZM309.822 48.945C308.166 48.945 306.614 48.6183 305.167 47.965C303.721 47.3117 302.496 46.355 301.492 45.095C301.189 44.6983 301.072 44.29 301.142 43.87C301.236 43.45 301.469 43.1117 301.842 42.855C302.262 42.575 302.694 42.4817 303.137 42.575C303.604 42.6683 303.977 42.9017 304.257 43.275C304.887 44.0683 305.681 44.6867 306.637 45.13C307.594 45.5733 308.679 45.795 309.892 45.795C311.012 45.795 312.039 45.5267 312.972 44.99C313.929 44.4533 314.687 43.66 315.247 42.61C315.807 41.56 316.087 40.2767 316.087 38.76V33.79L317.242 30.71L319.517 31.445V39.005C319.517 40.8483 319.109 42.5167 318.292 44.01C317.476 45.5267 316.332 46.7283 314.862 47.615C313.416 48.5017 311.736 48.945 309.822 48.945ZM309.892 37.99C311.106 37.99 312.179 37.71 313.112 37.15C314.046 36.59 314.769 35.82 315.282 34.84C315.819 33.86 316.087 32.7283 316.087 31.445C316.087 30.1617 315.819 29.03 315.282 28.05C314.769 27.0467 314.046 26.265 313.112 25.705C312.179 25.145 311.106 24.865 309.892 24.865C308.679 24.865 307.606 25.145 306.672 25.705C305.739 26.265 305.004 27.0467 304.467 28.05C303.931 29.03 303.662 30.1617 303.662 31.445C303.662 32.7283 303.931 33.86 304.467 34.84C305.004 35.82 305.739 36.59 306.672 37.15C307.606 37.71 308.679 37.99 309.892 37.99ZM333.825 41.14C331.889 41.14 330.162 40.7317 328.645 39.915C327.152 39.075 325.974 37.9317 325.11 36.485C324.27 35.015 323.85 33.335 323.85 31.445C323.85 29.5317 324.247 27.8517 325.04 26.405C325.857 24.935 326.977 23.7917 328.4 22.975C329.824 22.135 331.457 21.715 333.3 21.715C335.12 21.715 336.684 22.1233 337.99 22.94C339.297 23.7333 340.289 24.8417 340.965 26.265C341.665 27.665 342.015 29.2867 342.015 31.13C342.015 31.5733 341.864 31.9467 341.56 32.25C341.257 32.53 340.872 32.67 340.405 32.67H326.3V29.87H340.3L338.865 30.85C338.842 29.6833 338.609 28.645 338.165 27.735C337.722 26.8017 337.092 26.0667 336.275 25.53C335.459 24.9933 334.467 24.725 333.3 24.725C331.97 24.725 330.827 25.0167 329.87 25.6C328.937 26.1833 328.225 26.9883 327.735 28.015C327.245 29.0183 327 30.1617 327 31.445C327 32.7283 327.292 33.8717 327.875 34.875C328.459 35.8783 329.264 36.6717 330.29 37.255C331.317 37.8383 332.495 38.13 333.825 38.13C334.549 38.13 335.284 38.0017 336.03 37.745C336.8 37.465 337.419 37.15 337.885 36.8C338.235 36.5433 338.609 36.415 339.005 36.415C339.425 36.3917 339.787 36.5083 340.09 36.765C340.487 37.115 340.697 37.5 340.72 37.92C340.744 38.34 340.557 38.7017 340.16 39.005C339.367 39.635 338.375 40.1483 337.185 40.545C336.019 40.9417 334.899 41.14 333.825 41.14ZM348.284 29.03C348.284 27.63 348.622 26.3817 349.299 25.285C349.999 24.165 350.932 23.2783 352.099 22.625C353.265 21.9717 354.549 21.645 355.949 21.645C357.349 21.645 358.387 21.8783 359.064 22.345C359.764 22.7883 360.032 23.325 359.869 23.955C359.799 24.2817 359.659 24.5383 359.449 24.725C359.262 24.8883 359.04 24.9933 358.784 25.04C358.527 25.0867 358.247 25.075 357.944 25.005C356.45 24.7017 355.109 24.6783 353.919 24.935C352.729 25.1917 351.784 25.67 351.084 26.37C350.407 27.07 350.069 27.9567 350.069 29.03H348.284ZM348.319 41C347.759 41 347.327 40.86 347.024 40.58C346.72 40.2767 346.569 39.8333 346.569 39.25V23.605C346.569 23.045 346.72 22.6133 347.024 22.31C347.327 22.0067 347.759 21.855 348.319 21.855C348.902 21.855 349.334 22.0067 349.614 22.31C349.917 22.59 350.069 23.0217 350.069 23.605V39.25C350.069 39.81 349.917 40.2417 349.614 40.545C349.334 40.8483 348.902 41 348.319 41Z" fill="#6D28D9"/>
</svg>
